<mxfile host="app.diagrams.net" modified="2021-01-11T16:27:31.327Z" agent="5.0 (Windows NT 10.0; Win64; x64) AppleWebKit/537.36 (KHTML, like Gecko) Chrome/87.0.4280.88 Safari/537.36" etag="o-SM8cc8Sxrn1CxLOqcO" version="14.1.9" type="github">
  <diagram id="C5RBs43oDa-KdzZeNtuy" name="Page-1">
    <mxGraphModel dx="1185" dy="635" grid="1" gridSize="10" guides="1" tooltips="1" connect="1" arrows="1" fold="1" page="1" pageScale="1" pageWidth="827" pageHeight="1169" math="0" shadow="0">
      <root>
        <mxCell id="WIyWlLk6GJQsqaUBKTNV-0" />
        <mxCell id="WIyWlLk6GJQsqaUBKTNV-1" parent="WIyWlLk6GJQsqaUBKTNV-0" />
        <mxCell id="WIyWlLk6GJQsqaUBKTNV-2" value="" style="rounded=0;html=1;jettySize=auto;orthogonalLoop=1;fontSize=13;endArrow=block;endFill=1;endSize=8;strokeWidth=1;shadow=0;labelBackgroundColor=none;entryX=0.4;entryY=0.01;entryDx=0;entryDy=0;entryPerimeter=0;startSize=6;fontFamily=Times New Roman;" parent="WIyWlLk6GJQsqaUBKTNV-1" source="YnufCiHQ7lj1CyzB-QVg-0" target="YnufCiHQ7lj1CyzB-QVg-7" edge="1">
          <mxGeometry relative="1" as="geometry">
            <mxPoint x="371" y="200" as="targetPoint" />
          </mxGeometry>
        </mxCell>
        <mxCell id="WIyWlLk6GJQsqaUBKTNV-3" value="Web of Science &lt;br style=&quot;font-size: 13px;&quot;&gt;(n = 1098)" style="rounded=1;whiteSpace=wrap;html=1;fontSize=13;glass=0;strokeWidth=1;shadow=0;arcSize=0;fontFamily=Times New Roman;" parent="WIyWlLk6GJQsqaUBKTNV-1" vertex="1">
          <mxGeometry x="232" y="80" width="80" height="50" as="geometry" />
        </mxCell>
        <mxCell id="YnufCiHQ7lj1CyzB-QVg-0" value="Scopus &lt;br style=&quot;font-size: 13px;&quot;&gt;(n = 1011)" style="rounded=0;whiteSpace=wrap;html=1;fontFamily=Times New Roman;fontSize=13;" parent="WIyWlLk6GJQsqaUBKTNV-1" vertex="1">
          <mxGeometry x="317" y="80" width="60" height="50" as="geometry" />
        </mxCell>
        <mxCell id="YnufCiHQ7lj1CyzB-QVg-1" value="" style="rounded=0;html=1;jettySize=auto;orthogonalLoop=1;fontSize=13;endArrow=block;endFill=1;endSize=8;strokeWidth=1;shadow=0;labelBackgroundColor=none;startSize=6;fontFamily=Times New Roman;" parent="WIyWlLk6GJQsqaUBKTNV-1" source="WIyWlLk6GJQsqaUBKTNV-3" edge="1">
          <mxGeometry relative="1" as="geometry">
            <mxPoint x="271" y="100" as="sourcePoint" />
            <mxPoint x="341" y="189" as="targetPoint" />
          </mxGeometry>
        </mxCell>
        <mxCell id="YnufCiHQ7lj1CyzB-QVg-3" style="rounded=0;orthogonalLoop=1;jettySize=auto;html=1;entryX=0.589;entryY=0.022;entryDx=0;entryDy=0;entryPerimeter=0;endArrow=block;endFill=1;endSize=8;startSize=6;strokeWidth=1;fontFamily=Times New Roman;fontSize=13;" parent="WIyWlLk6GJQsqaUBKTNV-1" source="YnufCiHQ7lj1CyzB-QVg-2" target="YnufCiHQ7lj1CyzB-QVg-7" edge="1">
          <mxGeometry relative="1" as="geometry">
            <mxPoint x="391" y="188" as="targetPoint" />
          </mxGeometry>
        </mxCell>
        <mxCell id="YnufCiHQ7lj1CyzB-QVg-2" value="SciELO&amp;nbsp;&lt;br style=&quot;font-size: 13px;&quot;&gt;(n = 28)" style="rounded=0;whiteSpace=wrap;html=1;fontFamily=Times New Roman;fontSize=13;" parent="WIyWlLk6GJQsqaUBKTNV-1" vertex="1">
          <mxGeometry x="385" y="80" width="60" height="50" as="geometry" />
        </mxCell>
        <mxCell id="YnufCiHQ7lj1CyzB-QVg-8" style="edgeStyle=none;rounded=0;orthogonalLoop=1;jettySize=auto;html=1;entryX=0.833;entryY=0;entryDx=0;entryDy=0;endArrow=block;endFill=1;endSize=8;startSize=6;entryPerimeter=0;strokeWidth=1;fontFamily=Times New Roman;fontSize=13;" parent="WIyWlLk6GJQsqaUBKTNV-1" source="YnufCiHQ7lj1CyzB-QVg-5" target="YnufCiHQ7lj1CyzB-QVg-7" edge="1">
          <mxGeometry relative="1" as="geometry" />
        </mxCell>
        <mxCell id="YnufCiHQ7lj1CyzB-QVg-5" value="References from reviews (n = 6)" style="rounded=0;whiteSpace=wrap;html=1;fontFamily=Times New Roman;fontSize=13;" parent="WIyWlLk6GJQsqaUBKTNV-1" vertex="1">
          <mxGeometry x="451" y="80" width="80" height="50" as="geometry" />
        </mxCell>
        <mxCell id="YnufCiHQ7lj1CyzB-QVg-10" style="edgeStyle=none;rounded=0;orthogonalLoop=1;jettySize=auto;html=1;endArrow=block;endFill=0;entryX=0;entryY=0.5;entryDx=0;entryDy=0;strokeWidth=1;fontFamily=Times New Roman;fontSize=13;" parent="WIyWlLk6GJQsqaUBKTNV-1" edge="1" target="YnufCiHQ7lj1CyzB-QVg-11">
          <mxGeometry relative="1" as="geometry">
            <mxPoint x="501" y="180" as="targetPoint" />
            <mxPoint x="381" y="230" as="sourcePoint" />
          </mxGeometry>
        </mxCell>
        <mxCell id="YnufCiHQ7lj1CyzB-QVg-13" style="edgeStyle=none;rounded=0;orthogonalLoop=1;jettySize=auto;html=1;endArrow=block;endFill=1;strokeWidth=1;fontFamily=Times New Roman;fontSize=13;" parent="WIyWlLk6GJQsqaUBKTNV-1" source="YnufCiHQ7lj1CyzB-QVg-7" target="YnufCiHQ7lj1CyzB-QVg-12" edge="1">
          <mxGeometry relative="1" as="geometry" />
        </mxCell>
        <mxCell id="YnufCiHQ7lj1CyzB-QVg-7" value="Records found &lt;br style=&quot;font-size: 13px;&quot;&gt;(n = 2143)&amp;nbsp;" style="rounded=0;whiteSpace=wrap;html=1;fontFamily=Times New Roman;fontSize=13;" parent="WIyWlLk6GJQsqaUBKTNV-1" vertex="1">
          <mxGeometry x="321" y="190" width="120" height="30" as="geometry" />
        </mxCell>
        <mxCell id="YnufCiHQ7lj1CyzB-QVg-9" style="edgeStyle=none;rounded=0;orthogonalLoop=1;jettySize=auto;html=1;exitX=0.75;exitY=0;exitDx=0;exitDy=0;endArrow=classic;endFill=1;fontFamily=Times New Roman;fontSize=13;" parent="WIyWlLk6GJQsqaUBKTNV-1" source="YnufCiHQ7lj1CyzB-QVg-7" target="YnufCiHQ7lj1CyzB-QVg-7" edge="1">
          <mxGeometry relative="1" as="geometry" />
        </mxCell>
        <mxCell id="YnufCiHQ7lj1CyzB-QVg-11" value="Duplicates removed &lt;br style=&quot;font-size: 13px;&quot;&gt;(n = 682)" style="rounded=0;whiteSpace=wrap;html=1;fontFamily=Times New Roman;fontSize=13;" parent="WIyWlLk6GJQsqaUBKTNV-1" vertex="1">
          <mxGeometry x="461" y="215" width="130" height="30" as="geometry" />
        </mxCell>
        <mxCell id="YnufCiHQ7lj1CyzB-QVg-15" style="edgeStyle=none;rounded=0;orthogonalLoop=1;jettySize=auto;html=1;entryX=0;entryY=0.5;entryDx=0;entryDy=0;endArrow=block;endFill=0;strokeWidth=1;fontFamily=Times New Roman;fontSize=13;" parent="WIyWlLk6GJQsqaUBKTNV-1" target="YnufCiHQ7lj1CyzB-QVg-14" edge="1">
          <mxGeometry relative="1" as="geometry">
            <mxPoint x="381" y="310" as="sourcePoint" />
          </mxGeometry>
        </mxCell>
        <mxCell id="YnufCiHQ7lj1CyzB-QVg-17" style="edgeStyle=none;rounded=0;orthogonalLoop=1;jettySize=auto;html=1;endArrow=block;endFill=1;strokeWidth=1;fontFamily=Times New Roman;fontSize=13;" parent="WIyWlLk6GJQsqaUBKTNV-1" source="YnufCiHQ7lj1CyzB-QVg-12" target="YnufCiHQ7lj1CyzB-QVg-16" edge="1">
          <mxGeometry relative="1" as="geometry" />
        </mxCell>
        <mxCell id="YnufCiHQ7lj1CyzB-QVg-12" value="Records screened on title and abstract &lt;br style=&quot;font-size: 13px;&quot;&gt;(n = 1461)" style="rounded=0;whiteSpace=wrap;html=1;fontFamily=Times New Roman;fontSize=13;" parent="WIyWlLk6GJQsqaUBKTNV-1" vertex="1">
          <mxGeometry x="321" y="250" width="120" height="50" as="geometry" />
        </mxCell>
        <mxCell id="YnufCiHQ7lj1CyzB-QVg-14" value="Records excluded &lt;br style=&quot;font-size: 13px;&quot;&gt;(n = 1335)" style="rounded=0;whiteSpace=wrap;html=1;fontFamily=Times New Roman;fontSize=13;" parent="WIyWlLk6GJQsqaUBKTNV-1" vertex="1">
          <mxGeometry x="461" y="295" width="130" height="30" as="geometry" />
        </mxCell>
        <mxCell id="YnufCiHQ7lj1CyzB-QVg-19" style="edgeStyle=none;rounded=0;orthogonalLoop=1;jettySize=auto;html=1;endArrow=block;endFill=0;entryX=0;entryY=0.5;entryDx=0;entryDy=0;strokeWidth=1;fontFamily=Times New Roman;fontSize=13;" parent="WIyWlLk6GJQsqaUBKTNV-1" target="YnufCiHQ7lj1CyzB-QVg-18" edge="1">
          <mxGeometry relative="1" as="geometry">
            <mxPoint x="381" y="395" as="sourcePoint" />
            <mxPoint x="467" y="405" as="targetPoint" />
          </mxGeometry>
        </mxCell>
        <mxCell id="YnufCiHQ7lj1CyzB-QVg-27" style="edgeStyle=none;rounded=0;orthogonalLoop=1;jettySize=auto;html=1;entryX=0.5;entryY=0;entryDx=0;entryDy=0;endArrow=block;endFill=1;strokeWidth=1;fontFamily=Times New Roman;fontSize=13;" parent="WIyWlLk6GJQsqaUBKTNV-1" source="YnufCiHQ7lj1CyzB-QVg-16" target="YnufCiHQ7lj1CyzB-QVg-26" edge="1">
          <mxGeometry relative="1" as="geometry" />
        </mxCell>
        <mxCell id="YnufCiHQ7lj1CyzB-QVg-16" value="Full-text articles assessed (n = 126)" style="rounded=0;whiteSpace=wrap;html=1;fontFamily=Times New Roman;fontSize=13;" parent="WIyWlLk6GJQsqaUBKTNV-1" vertex="1">
          <mxGeometry x="321" y="330" width="120" height="40" as="geometry" />
        </mxCell>
        <mxCell id="YnufCiHQ7lj1CyzB-QVg-18" value="Articles excluded with reasons (n = 87):&lt;br style=&quot;font-size: 13px;&quot;&gt;Essential data missing (n = 44)&lt;br style=&quot;font-size: 13px;&quot;&gt;Ineligible experimental design (n = 32)&lt;br style=&quot;font-size: 13px;&quot;&gt;Duplicated data (n = 6)&lt;br style=&quot;font-size: 13px;&quot;&gt;No full text available &lt;br style=&quot;font-size: 13px;&quot;&gt;(n = 5)" style="rounded=0;whiteSpace=wrap;html=1;fontFamily=Times New Roman;fontSize=13;" parent="WIyWlLk6GJQsqaUBKTNV-1" vertex="1">
          <mxGeometry x="461" y="330" width="130" height="130" as="geometry" />
        </mxCell>
        <mxCell id="YnufCiHQ7lj1CyzB-QVg-26" value="Articles included in qualitative synthesis (n = 39)" style="rounded=0;whiteSpace=wrap;html=1;fontFamily=Times New Roman;fontSize=13;" parent="WIyWlLk6GJQsqaUBKTNV-1" vertex="1">
          <mxGeometry x="321" y="463.7" width="120" height="50" as="geometry" />
        </mxCell>
        <mxCell id="AKfp7iOpATwk2COCuDjY-0" value="Identification" style="rounded=1;whiteSpace=wrap;html=1;arcSize=11;rotation=-90;fillColor=#cce5ff;strokeColor=#36393d;fontFamily=Times New Roman;fontSize=13;" vertex="1" parent="WIyWlLk6GJQsqaUBKTNV-1">
          <mxGeometry x="130" y="136.5" width="137" height="25" as="geometry" />
        </mxCell>
        <mxCell id="AKfp7iOpATwk2COCuDjY-1" value="Screening" style="rounded=1;whiteSpace=wrap;html=1;arcSize=11;rotation=-90;fillColor=#cce5ff;strokeColor=#36393d;fontFamily=Times New Roman;fontSize=13;" vertex="1" parent="WIyWlLk6GJQsqaUBKTNV-1">
          <mxGeometry x="145.88" y="263.13" width="105.25" height="25" as="geometry" />
        </mxCell>
        <mxCell id="AKfp7iOpATwk2COCuDjY-2" value="Eligibility" style="rounded=1;whiteSpace=wrap;html=1;arcSize=11;rotation=-90;fillColor=#cce5ff;strokeColor=#36393d;fontFamily=Times New Roman;fontSize=13;" vertex="1" parent="WIyWlLk6GJQsqaUBKTNV-1">
          <mxGeometry x="140.29" y="382.04" width="116.43" height="25" as="geometry" />
        </mxCell>
        <mxCell id="AKfp7iOpATwk2COCuDjY-3" value="Included" style="rounded=1;whiteSpace=wrap;html=1;arcSize=11;rotation=-90;fillColor=#cce5ff;strokeColor=#36393d;fontFamily=Times New Roman;fontSize=13;" vertex="1" parent="WIyWlLk6GJQsqaUBKTNV-1">
          <mxGeometry x="169.82" y="476.2" width="56.38" height="25" as="geometry" />
        </mxCell>
      </root>
    </mxGraphModel>
  </diagram>
</mxfile>
